<svg width="21.523438" height="21.357422" viewBox="0 0 21.5234 21.3574" fill="none" xmlns="http://www.w3.org/2000/svg" xmlns:xlink="http://www.w3.org/1999/xlink">
	<desc>
			Created with Pixso.
	</desc>
	<defs/>
	<path id="+" d="M8.89 21.23Q9.11 21.35 9.4 21.35L12.16 21.35Q12.46 21.35 12.68 21.22Q12.79 21.16 12.88 21.07Q12.97 20.97 13.04 20.86Q13.16 20.64 13.16 20.35L13.16 12.79L20.56 12.79Q20.79 12.79 20.97 12.7Q21.11 12.64 21.24 12.51Q21.38 12.37 21.45 12.2Q21.52 12.03 21.52 11.83L21.52 9.31Q21.52 9.01 21.39 8.79Q21.33 8.69 21.24 8.6Q21.11 8.46 20.95 8.39Q20.77 8.32 20.56 8.32L13.16 8.32L13.16 0.99Q13.16 0.69 13.03 0.47Q12.97 0.37 12.88 0.28Q12.79 0.19 12.68 0.12Q12.46 0 12.16 0L9.4 0Q9.11 0 8.89 0.12Q8.77 0.18 8.68 0.28Q8.6 0.36 8.54 0.45Q8.4 0.68 8.4 0.99L8.4 8.32L1 8.32Q0.71 8.32 0.49 8.44Q0.38 8.5 0.28 8.6Q0.19 8.69 0.12 8.79Q0 9.01 0 9.31L0 11.83Q0 12.03 0.07 12.2Q0.14 12.37 0.28 12.51Q0.37 12.6 0.47 12.66Q0.7 12.79 1 12.79L8.4 12.79L8.4 20.35Q8.4 20.65 8.53 20.88Q8.59 20.98 8.68 21.07Q8.77 21.17 8.89 21.23Z" fill="#F47621" fill-opacity="1.000000" fill-rule="evenodd"/>
</svg>
